name C:\Users\u0101727\Documents\MyRepositories\upper-imu-dc\OpenSim\subject0\MA\ResultsMA\grid_4nodes_9dim\angles_11.mot
datacolumns 10
datarows 52
range 1150.01000000 1150.52000000
endheader 
time	clav_prot	clav_elev	scapula_abduction	scapula_elevation	scapula_upward_rot	scapula_winging	plane_elv	shoulder_elv	axial_rot	
       1150.01000000	        -50.00000000	         10.00000000	         15.00000000	        -10.00000000	         30.00000000	        -20.00000000	        -90.00000000	        100.00000000	        -30.00000000	
       1150.02000000	        -38.33333333	         10.00000000	         15.00000000	        -10.00000000	         30.00000000	        -20.00000000	        -90.00000000	        100.00000000	        -30.00000000	
       1150.03000000	        -26.66666667	         10.00000000	         15.00000000	        -10.00000000	         30.00000000	        -20.00000000	        -90.00000000	        100.00000000	        -30.00000000	
       1150.04000000	        -15.00000000	         10.00000000	         15.00000000	        -10.00000000	         30.00000000	        -20.00000000	        -90.00000000	        100.00000000	        -30.00000000	
       1150.05000000	        -50.00000000	         20.00000000	         15.00000000	        -10.00000000	         30.00000000	        -20.00000000	        -90.00000000	        100.00000000	        -30.00000000	
       1150.06000000	        -38.33333333	         20.00000000	         15.00000000	        -10.00000000	         30.00000000	        -20.00000000	        -90.00000000	        100.00000000	        -30.00000000	
       1150.07000000	        -26.66666667	         20.00000000	         15.00000000	        -10.00000000	         30.00000000	        -20.00000000	        -90.00000000	        100.00000000	        -30.00000000	
       1150.08000000	        -15.00000000	         20.00000000	         15.00000000	        -10.00000000	         30.00000000	        -20.00000000	        -90.00000000	        100.00000000	        -30.00000000	
       1150.09000000	        -50.00000000	        -10.00000000	        -40.00000000	         -3.33333333	         30.00000000	        -20.00000000	        -90.00000000	        100.00000000	        -30.00000000	
       1150.10000000	        -38.33333333	        -10.00000000	        -40.00000000	         -3.33333333	         30.00000000	        -20.00000000	        -90.00000000	        100.00000000	        -30.00000000	
       1150.11000000	        -26.66666667	        -10.00000000	        -40.00000000	         -3.33333333	         30.00000000	        -20.00000000	        -90.00000000	        100.00000000	        -30.00000000	
       1150.12000000	        -15.00000000	        -10.00000000	        -40.00000000	         -3.33333333	         30.00000000	        -20.00000000	        -90.00000000	        100.00000000	        -30.00000000	
       1150.13000000	        -50.00000000	          0.00000000	        -40.00000000	         -3.33333333	         30.00000000	        -20.00000000	        -90.00000000	        100.00000000	        -30.00000000	
       1150.14000000	        -38.33333333	          0.00000000	        -40.00000000	         -3.33333333	         30.00000000	        -20.00000000	        -90.00000000	        100.00000000	        -30.00000000	
       1150.15000000	        -26.66666667	          0.00000000	        -40.00000000	         -3.33333333	         30.00000000	        -20.00000000	        -90.00000000	        100.00000000	        -30.00000000	
       1150.16000000	        -15.00000000	          0.00000000	        -40.00000000	         -3.33333333	         30.00000000	        -20.00000000	        -90.00000000	        100.00000000	        -30.00000000	
       1150.17000000	        -50.00000000	         10.00000000	        -40.00000000	         -3.33333333	         30.00000000	        -20.00000000	        -90.00000000	        100.00000000	        -30.00000000	
       1150.18000000	        -38.33333333	         10.00000000	        -40.00000000	         -3.33333333	         30.00000000	        -20.00000000	        -90.00000000	        100.00000000	        -30.00000000	
       1150.19000000	        -26.66666667	         10.00000000	        -40.00000000	         -3.33333333	         30.00000000	        -20.00000000	        -90.00000000	        100.00000000	        -30.00000000	
       1150.20000000	        -15.00000000	         10.00000000	        -40.00000000	         -3.33333333	         30.00000000	        -20.00000000	        -90.00000000	        100.00000000	        -30.00000000	
       1150.21000000	        -50.00000000	         20.00000000	        -40.00000000	         -3.33333333	         30.00000000	        -20.00000000	        -90.00000000	        100.00000000	        -30.00000000	
       1150.22000000	        -38.33333333	         20.00000000	        -40.00000000	         -3.33333333	         30.00000000	        -20.00000000	        -90.00000000	        100.00000000	        -30.00000000	
       1150.23000000	        -26.66666667	         20.00000000	        -40.00000000	         -3.33333333	         30.00000000	        -20.00000000	        -90.00000000	        100.00000000	        -30.00000000	
       1150.24000000	        -15.00000000	         20.00000000	        -40.00000000	         -3.33333333	         30.00000000	        -20.00000000	        -90.00000000	        100.00000000	        -30.00000000	
       1150.25000000	        -50.00000000	        -10.00000000	        -21.66666667	         -3.33333333	         30.00000000	        -20.00000000	        -90.00000000	        100.00000000	        -30.00000000	
       1150.26000000	        -38.33333333	        -10.00000000	        -21.66666667	         -3.33333333	         30.00000000	        -20.00000000	        -90.00000000	        100.00000000	        -30.00000000	
       1150.27000000	        -26.66666667	        -10.00000000	        -21.66666667	         -3.33333333	         30.00000000	        -20.00000000	        -90.00000000	        100.00000000	        -30.00000000	
       1150.28000000	        -15.00000000	        -10.00000000	        -21.66666667	         -3.33333333	         30.00000000	        -20.00000000	        -90.00000000	        100.00000000	        -30.00000000	
       1150.29000000	        -50.00000000	          0.00000000	        -21.66666667	         -3.33333333	         30.00000000	        -20.00000000	        -90.00000000	        100.00000000	        -30.00000000	
       1150.30000000	        -38.33333333	          0.00000000	        -21.66666667	         -3.33333333	         30.00000000	        -20.00000000	        -90.00000000	        100.00000000	        -30.00000000	
       1150.31000000	        -26.66666667	          0.00000000	        -21.66666667	         -3.33333333	         30.00000000	        -20.00000000	        -90.00000000	        100.00000000	        -30.00000000	
       1150.32000000	        -15.00000000	          0.00000000	        -21.66666667	         -3.33333333	         30.00000000	        -20.00000000	        -90.00000000	        100.00000000	        -30.00000000	
       1150.33000000	        -50.00000000	         10.00000000	        -21.66666667	         -3.33333333	         30.00000000	        -20.00000000	        -90.00000000	        100.00000000	        -30.00000000	
       1150.34000000	        -38.33333333	         10.00000000	        -21.66666667	         -3.33333333	         30.00000000	        -20.00000000	        -90.00000000	        100.00000000	        -30.00000000	
       1150.35000000	        -26.66666667	         10.00000000	        -21.66666667	         -3.33333333	         30.00000000	        -20.00000000	        -90.00000000	        100.00000000	        -30.00000000	
       1150.36000000	        -15.00000000	         10.00000000	        -21.66666667	         -3.33333333	         30.00000000	        -20.00000000	        -90.00000000	        100.00000000	        -30.00000000	
       1150.37000000	        -50.00000000	         20.00000000	        -21.66666667	         -3.33333333	         30.00000000	        -20.00000000	        -90.00000000	        100.00000000	        -30.00000000	
       1150.38000000	        -38.33333333	         20.00000000	        -21.66666667	         -3.33333333	         30.00000000	        -20.00000000	        -90.00000000	        100.00000000	        -30.00000000	
       1150.39000000	        -26.66666667	         20.00000000	        -21.66666667	         -3.33333333	         30.00000000	        -20.00000000	        -90.00000000	        100.00000000	        -30.00000000	
       1150.40000000	        -15.00000000	         20.00000000	        -21.66666667	         -3.33333333	         30.00000000	        -20.00000000	        -90.00000000	        100.00000000	        -30.00000000	
       1150.41000000	        -50.00000000	        -10.00000000	         -3.33333333	         -3.33333333	         30.00000000	        -20.00000000	        -90.00000000	        100.00000000	        -30.00000000	
       1150.42000000	        -38.33333333	        -10.00000000	         -3.33333333	         -3.33333333	         30.00000000	        -20.00000000	        -90.00000000	        100.00000000	        -30.00000000	
       1150.43000000	        -26.66666667	        -10.00000000	         -3.33333333	         -3.33333333	         30.00000000	        -20.00000000	        -90.00000000	        100.00000000	        -30.00000000	
       1150.44000000	        -15.00000000	        -10.00000000	         -3.33333333	         -3.33333333	         30.00000000	        -20.00000000	        -90.00000000	        100.00000000	        -30.00000000	
       1150.45000000	        -50.00000000	          0.00000000	         -3.33333333	         -3.33333333	         30.00000000	        -20.00000000	        -90.00000000	        100.00000000	        -30.00000000	
       1150.46000000	        -38.33333333	          0.00000000	         -3.33333333	         -3.33333333	         30.00000000	        -20.00000000	        -90.00000000	        100.00000000	        -30.00000000	
       1150.47000000	        -26.66666667	          0.00000000	         -3.33333333	         -3.33333333	         30.00000000	        -20.00000000	        -90.00000000	        100.00000000	        -30.00000000	
       1150.48000000	        -15.00000000	          0.00000000	         -3.33333333	         -3.33333333	         30.00000000	        -20.00000000	        -90.00000000	        100.00000000	        -30.00000000	
       1150.49000000	        -50.00000000	         10.00000000	         -3.33333333	         -3.33333333	         30.00000000	        -20.00000000	        -90.00000000	        100.00000000	        -30.00000000	
       1150.50000000	        -38.33333333	         10.00000000	         -3.33333333	         -3.33333333	         30.00000000	        -20.00000000	        -90.00000000	        100.00000000	        -30.00000000	
       1150.51000000	        -26.66666667	         10.00000000	         -3.33333333	         -3.33333333	         30.00000000	        -20.00000000	        -90.00000000	        100.00000000	        -30.00000000	
       1150.52000000	        -15.00000000	         10.00000000	         -3.33333333	         -3.33333333	         30.00000000	        -20.00000000	        -90.00000000	        100.00000000	        -30.00000000	
